<svg width="14" height="17" viewBox="0 0 14 17" fill="none" xmlns="http://www.w3.org/2000/svg">
<path d="M13.2491 5.82909L11.5436 16.0109C11.5169 16.157 11.4399 16.2891 11.326 16.3844C11.2121 16.4797 11.0685 16.5322 10.92 16.5327H3.08C2.9315 16.5322 2.78786 16.4797 2.67397 16.3844C2.56007 16.2891 2.48309 16.157 2.45636 16.0109L0.750909 5.82909C0.736218 5.73847 0.741308 5.64575 0.765828 5.55728C0.790348 5.46882 0.833719 5.3867 0.892963 5.31658C0.952207 5.24645 1.02592 5.18998 1.10905 5.15102C1.19218 5.11207 1.28275 5.09156 1.37455 5.09091H12.6127C12.7056 5.08971 12.7976 5.10886 12.8823 5.147C12.967 5.18515 13.0423 5.24137 13.1029 5.31171C13.1636 5.38206 13.2081 5.46483 13.2333 5.55421C13.2586 5.64359 13.264 5.73741 13.2491 5.82909ZM14 3.18182C14 3.35059 13.933 3.51245 13.8136 3.6318C13.6943 3.75114 13.5324 3.81818 13.3636 3.81818H0.636364C0.467589 3.81818 0.305728 3.75114 0.186387 3.6318C0.0670454 3.51245 0 3.35059 0 3.18182C0 3.01304 0.0670454 2.85118 0.186387 2.73184C0.305728 2.6125 0.467589 2.54545 0.636364 2.54545H3.81818V0.636364C3.81818 0.467589 3.88523 0.305728 4.00457 0.186387C4.12391 0.0670452 4.28577 0 4.45455 0H9.54545C9.71423 0 9.87609 0.0670452 9.99543 0.186387C10.1148 0.305728 10.1818 0.467589 10.1818 0.636364V2.54545H13.3636C13.5324 2.54545 13.6943 2.6125 13.8136 2.73184C13.933 2.85118 14 3.01304 14 3.18182ZM8.90909 2.54545V1.27273H5.09091V2.54545H8.90909Z" fill="#D7D7D7"/>
</svg>
