<svg width="21" height="22" viewBox="0 0 21 22" fill="none" xmlns="http://www.w3.org/2000/svg">
<path d="M20.3429 2.59803C20.3422 2.51804 20.3196 2.43977 20.2776 2.37172C20.2355 2.30367 20.1756 2.24845 20.1044 2.21207C20.0331 2.17569 19.9533 2.15954 19.8735 2.16538C19.7937 2.17121 19.7171 2.19881 19.6519 2.24517L17.9355 3.47556L17.8004 3.57287C15.9509 1.72715 13.4125 0.572998 10.5997 0.572998C4.95889 0.572998 0.37 5.16246 0.37 10.803C0.37 16.4435 4.95917 21.033 10.5997 21.033C12.2747 21.0333 13.9241 20.6222 15.403 19.8359C16.882 19.0495 18.1452 17.912 19.0816 16.5232C19.1194 16.4676 19.1458 16.405 19.1593 16.3391C19.1729 16.2732 19.1733 16.2053 19.1606 16.1393C19.1478 16.0732 19.1222 16.0104 19.0851 15.9542C19.048 15.8981 19.0002 15.8499 18.9444 15.8123L16.3852 14.0362C16.2648 13.9557 16.1175 13.926 15.9753 13.9537C15.8331 13.9814 15.7077 14.0642 15.6263 14.184C14.495 15.8565 12.6204 16.855 10.6092 16.855C7.27181 16.855 4.55636 14.1401 4.55636 10.8036C4.55636 7.46701 7.27181 4.75214 10.6092 4.75214C12.0178 4.75214 13.3097 5.24187 14.3382 6.05154L14.0492 6.25944L12.3317 7.48953C12.2669 7.53649 12.2163 7.60033 12.1853 7.67409C12.1543 7.74785 12.1442 7.8287 12.156 7.90782C12.1678 7.98694 12.2012 8.06129 12.2523 8.12277C12.3035 8.18425 12.3706 8.2305 12.4463 8.25646L19.7939 10.7597C19.927 10.8062 20.0729 10.7836 20.1889 10.7011C20.3042 10.6173 20.3706 10.4854 20.37 10.3456L20.3429 2.59803V2.59803Z" fill="#D7D7D7"/>
</svg>
